HIERARCHY
ROOT Hips
{
	OFFSET 0.000000 0.000000 0.000000
	CHANNELS 6 Xposition Yposition Zposition Zrotation Yrotation Xrotation 
	JOINT LHipJoint
	{
		OFFSET 0.000000 0.000000 0.000000
		CHANNELS 3 Zrotation Yrotation Xrotation
		JOINT LeftUpLeg
		{
			OFFSET 1.363060 -1.794630 0.839290
			CHANNELS 3 Zrotation Yrotation Xrotation
			JOINT LeftLeg
			{
				OFFSET 2.448110 -6.726130 0.000000
				CHANNELS 3 Zrotation Yrotation Xrotation
				JOINT LeftFoot
				{
					OFFSET 2.562200 -7.039590 0.000000
					CHANNELS 3 Zrotation Yrotation Xrotation
					JOINT LeftToeBase
					{
						OFFSET 0.157640 -0.433110 2.322550
						CHANNELS 3 Zrotation Yrotation Xrotation
						End Site
						{
							OFFSET 0.000000 0.000000 0.000000
						}
					}
				}
			}
		}
	}
	JOINT RHipJoint
	{
		OFFSET 0.000000 0.000000 0.000000
		CHANNELS 3 Zrotation Yrotation Xrotation
		JOINT RightUpLeg
		{
			OFFSET -1.305520 -1.794630 0.839290
			CHANNELS 3 Zrotation Yrotation Xrotation
			JOINT RightLeg
			{
				OFFSET -2.542530 -6.985550 0.000000
				CHANNELS 3 Zrotation Yrotation Xrotation
				JOINT RightFoot
				{
					OFFSET -2.568260 -7.056230 0.000000
					CHANNELS 3 Zrotation Yrotation Xrotation
					JOINT RightToeBase
					{
						OFFSET -0.164730 -0.452590 2.363150
						CHANNELS 3 Zrotation Yrotation Xrotation
						End Site
						{
							OFFSET 0.000000 0.000000 0.000000
						}
					}
				}
			}
		}
	}
	JOINT LowerBack
	{
		OFFSET 0.000000 0.000000 0.000000
		CHANNELS 3 Zrotation Yrotation Xrotation
		JOINT Spine
		{
			OFFSET 0.028270 2.035590 -0.193380
			CHANNELS 3 Zrotation Yrotation Xrotation
			JOINT Spine1
			{
				OFFSET 0.056720 2.048850 -0.042750
				CHANNELS 3 Zrotation Yrotation Xrotation
				JOINT Neck
				{
					OFFSET 0.000000 0.000000 0.000000
					CHANNELS 3 Zrotation Yrotation Xrotation
					JOINT Neck1
					{
						OFFSET -0.054170 1.746240 0.172020
						CHANNELS 3 Zrotation Yrotation Xrotation
						JOINT Head
						{
							OFFSET 0.104070 1.761360 -0.123970
							CHANNELS 3 Zrotation Yrotation Xrotation
							End Site
							{
								OFFSET 0.000000 0.000000 0.000000
							}
						}
					}
				}
				JOINT LeftShoulder
				{
					OFFSET 0.000000 0.000000 0.000000
					CHANNELS 3 Zrotation Yrotation Xrotation
					JOINT LeftArm
					{
						OFFSET 3.362410 1.200890 -0.311210
						CHANNELS 3 Zrotation Yrotation Xrotation
						JOINT LeftForeArm
						{
							OFFSET 4.983000 -0.000000 -0.000000
							CHANNELS 3 Zrotation Yrotation Xrotation
							JOINT LeftHand
							{
								OFFSET 3.483560 -0.000000 -0.000000
								CHANNELS 3 Zrotation Yrotation Xrotation
								JOINT LeftFingerBase
								{
									OFFSET 0.000000 0.000000 0.000000
									CHANNELS 3 Zrotation Yrotation Xrotation
									JOINT LeftHandIndex1
									{
										OFFSET 0.715260 -0.000000 -0.000000
										CHANNELS 3 Zrotation Yrotation Xrotation
										End Site
										{
											OFFSET 0.000000 0.000000 0.000000
										}
									}
								}
								JOINT LThumb
								{
									OFFSET 0.000000 0.000000 0.000000
									CHANNELS 3 Zrotation Yrotation Xrotation
									End Site
									{
										OFFSET 0.000000 0.000000 0.000000
									}
								}
							}
						}
					}
				}
				JOINT RightShoulder
				{
					OFFSET 0.000000 0.000000 0.000000
					CHANNELS 3 Zrotation Yrotation Xrotation
					JOINT RightArm
					{
						OFFSET -3.136600 1.374050 -0.404650
						CHANNELS 3 Zrotation Yrotation Xrotation
						JOINT RightForeArm
						{
							OFFSET -5.241900 -0.000000 -0.000000
							CHANNELS 3 Zrotation Yrotation Xrotation
							JOINT RightHand
							{
								OFFSET -3.444170 -0.000000 -0.000000
								CHANNELS 3 Zrotation Yrotation Xrotation
								JOINT RightFingerBase
								{
									OFFSET 0.000000 0.000000 0.000000
									CHANNELS 3 Zrotation Yrotation Xrotation
									JOINT RightHandIndex1
									{
										OFFSET -0.622530 -0.000000 -0.000000
										CHANNELS 3 Zrotation Yrotation Xrotation
										End Site
										{
											OFFSET 0.000000 0.000000 0.000000
										}
									}
								}
								JOINT RThumb
								{
									OFFSET 0.000000 0.000000 0.000000
									CHANNELS 3 Zrotation Yrotation Xrotation
									End Site
									{
										OFFSET 0.000000 0.000000 0.000000
									}
								}
							}
						}
					}
				}
			}
		}
	}
}
MOTION
Frames: 5
Frame Time: 0.008333
0.389340 17.416086 -11.490759 -5.911376 -5.391519 4.267508 2.951029 1.959380 1.035081 -10.850964 -16.357046 -31.014682 0.446876 7.079730 19.614260 -1.796503 10.658114 -4.984032 0.074800 -1.763900 -4.853700 -4.910097 -3.227880 -0.228932 35.492089 -0.463101 13.467068 -0.304600 -1.399993 8.059320 0.451650 -3.243635 -4.999868 -0.036500 1.232800 -3.389600 5.729746 2.288655 5.043269 1.921941 2.951610 -0.743529 1.076884 1.958427 -3.026641 -7.051674 -2.542848 -12.917777 3.575863 -2.553194 15.233469 2.729300 -1.617700 9.546200 -7.274857 3.277748 -2.034480 -85.497385 6.387036 14.722171 9.045178 -16.592769 -1.260461 -1.034065 -2.602284 15.544747 14.942115 21.903919 6.520600 -7.125000 0.000000 0.000000 -15.157600 54.874600 -3.740000 5.387908 -2.339823 -1.994819 78.692671 9.146104 19.305785 -19.221875 27.832801 -5.953996 0.890847 -0.121191 0.852044 -14.196960 10.336776 -2.788500 7.125000 0.000000 0.000000 8.458300 -19.270200 5.250200
0.395584 17.411295 -11.400065 -5.937297 -5.356051 4.213602 2.946504 1.964804 1.038893 -11.131432 -15.873417 -31.005161 0.470060 7.131787 19.783566 -1.764803 10.503873 -4.777147 0.089796 -1.926658 -5.303200 -4.907713 -3.225806 -0.234315 35.421721 -0.559191 13.765402 -0.311483 -1.430191 8.157264 0.432206 -3.129424 -5.002001 -0.031787 1.147967 -3.156147 5.765038 2.269208 5.024995 1.943657 2.927096 -0.756385 1.098694 1.945853 -3.051474 -7.056512 -2.526015 -12.801457 3.537177 -2.529699 15.213043 2.718374 -1.612612 9.508657 -7.280934 3.287179 -2.027740 -85.597005 6.466235 14.226149 8.972644 -16.455740 -1.235044 -1.064444 -2.566171 15.907577 15.062144 21.554031 6.489430 -7.125000 0.000000 0.000000 -14.828442 54.533874 -3.534290 5.389268 -2.350514 -2.000546 78.668337 9.021983 19.231645 -19.242594 27.868398 -5.972189 0.874669 -0.119734 0.868926 -13.983134 10.317817 -2.739174 7.125000 0.000000 0.000000 8.621165 -19.303137 5.347137
0.401727 17.406576 -11.309206 -5.949003 -5.333455 4.157007 2.942009 1.970391 1.042548 -11.417623 -15.410281 -30.980513 0.494346 7.185166 19.958069 -1.737411 10.368939 -4.561033 0.105318 -2.091138 -5.757593 -4.904867 -3.223638 -0.240017 35.338517 -0.643787 14.065142 -0.319800 -1.466166 8.271166 0.414169 -3.023369 -5.003873 -0.030744 1.119859 -3.078952 5.782671 2.256753 5.003625 1.962202 2.910298 -0.765384 1.123495 1.937278 -3.066134 -7.057158 -2.509993 -12.701247 3.498158 -2.507665 15.198368 2.706005 -1.607731 9.476555 -7.286922 3.295964 -2.020921 -85.693493 6.537636 13.739979 8.902066 -16.322396 -1.209903 -1.094150 -2.532227 16.244125 15.187468 21.224952 6.465885 -7.125000 0.000000 0.000000 -14.505835 54.216136 -3.339377 5.391582 -2.361222 -2.005747 78.647362 8.911164 19.144031 -19.255696 27.893553 -5.985145 0.859954 -0.119178 0.900886 -13.789983 10.304276 -2.695667 7.125000 0.000000 0.000000 8.768240 -19.328713 5.435503
0.407217 17.402324 -11.217273 -5.867892 -5.394906 4.082855 2.937709 1.977048 1.045178 -11.741181 -15.080951 -30.857090 0.525835 7.247177 20.166502 -1.738152 10.360062 -4.284655 0.124277 -2.266856 -6.243939 -4.899007 -3.220863 -0.247806 35.171510 -0.653332 14.374060 -0.337475 -1.539860 8.489262 0.405323 -2.970563 -5.004050 -0.053667 1.462138 -4.022028 5.684999 2.289954 4.962037 1.960040 2.943882 -0.749195 1.167828 1.954816 -3.014371 -7.030427 -2.499269 -12.706226 3.456964 -2.495166 15.221254 2.684208 -1.604196 9.479983 -7.292336 3.300535 -2.013581 -85.769523 6.558123 13.318140 8.844263 -16.213105 -1.186566 -1.119455 -2.512444 16.409073 15.347367 21.031746 6.492128 -7.125000 0.000000 0.000000 -14.226002 54.048505 -3.214965 5.400129 -2.372036 -2.007518 78.648320 8.887208 18.968447 -19.219066 27.850526 -5.963909 0.854792 -0.124507 1.031295 -13.731825 10.326111 -2.690151 7.125000 0.000000 0.000000 8.812210 -19.306219 5.467905
0.413165 17.397544 -11.126055 -5.778114 -5.461368 4.008361 2.933805 1.983914 1.048277 -12.053136 -14.799026 -30.713225 0.557805 7.308732 20.376217 -1.731877 10.319717 -4.010074 0.131656 -2.333605 -6.428753 -4.892990 -3.218066 -0.255070 35.003216 -0.649844 14.659473 -0.358475 -1.627108 8.744251 0.401689 -2.951662 -5.016490 -0.094243 1.915793 -5.275330 5.583585 2.325769 4.941952 1.952431 2.983086 -0.733819 1.201407 1.974858 -2.974695 -7.001715 -2.496168 -12.732453 3.424940 -2.493831 15.252086 2.664117 -1.604587 9.493141 -7.298562 3.304062 -2.007071 -85.833224 6.575985 12.934389 8.784024 -16.097768 -1.160520 -1.140983 -2.500697 16.577099 15.471116 20.938029 6.527475 -7.125000 0.000000 0.000000 -14.039122 53.977951 -3.146177 5.408786 -2.381301 -2.009003 78.658044 8.870965 18.783081 -19.176618 27.798597 -5.938242 0.851737 -0.132555 1.167859 -13.700644 10.377753 -2.698477 7.125000 0.000000 0.000000 8.834912 -19.249241 5.493606
